<svg viewBox="0 -7 179 48" fill="none" xmlns="http://www.w3.org/2000/svg">
  <path d="M32 33V10.25h2.09l6.36 8.16V0H16C7.136 0 0 7.136 0 16v1c0 8.864 7.136 16 16 16z" fill="#f58d02"/>
  <path d="M43.44 0v23.67h-2.19l-6.27-8.04V33H163c8.864 0 16-7.136 16-16v-1c0-8.864-7.136-16-16-16Z" fill="#f58d02"/>
  <path d="M152.49 23.25V9.84h2.98v13.41zm2.28 0v-2.58h7.35v2.58zm0-5.6v-2.49h6.69v2.49zm0-5.25V9.84h7.26v2.56zm-13.131 11.06c-1.1 0-2.05-.18-2.85-.53-.78-.37-1.51-.92-2.17-1.65l1.94-1.92c.43.49.91.88 1.43 1.16.53.27 1.15.4 1.84.4.63 0 1.12-.11 1.46-.34.35-.23.53-.54.53-.95 0-.37-.11-.67-.34-.89-.23-.23-.53-.42-.91-.59-.37-.16-.78-.32-1.24-.48-.44-.15-.89-.32-1.33-.51-.44-.2-.85-.45-1.24-.74-.37-.3-.66-.68-.89-1.12-.23-.46-.34-1.03-.34-1.71 0-.82.2-1.53.59-2.13.4-.6.96-1.05 1.67-1.35.71-.32 1.53-.48 2.45-.48.92 0 1.79.16 2.57.49.78.33 1.43.78 1.94 1.35l-1.94 1.92c-.4-.42-.82-.73-1.24-.93-.4-.2-.87-.3-1.39-.3-.52 0-.93.1-1.24.3a.94.94 0 0 0-.46.84c0 .34.11.62.34.84.23.2.53.38.89.53.38.15.79.3 1.24.46.46.15.91.33 1.35.53.44.2.85.46 1.22.78.38.3.68.7.91 1.18.23.47.34 1.05.34 1.75 0 1.28-.46 2.29-1.37 3.02-.91.72-2.17 1.08-3.78 1.08zm-13.139-.21V9.84h2.98v13.41zm-13.65-5.53v-2.2h2.83c.6 0 1.05-.15 1.37-.46.33-.3.49-.72.49-1.24 0-.48-.16-.88-.47-1.2-.32-.32-.77-.47-1.37-.47h-2.85V9.83h3.19c.89 0 1.67.17 2.34.51.67.33 1.2.79 1.58 1.39.38.6.57 1.28.57 2.05 0 .77-.19 1.48-.57 2.07-.38.58-.91 1.04-1.6 1.37-.68.33-1.49.49-2.41.49h-3.1zm-2.28 5.53V9.84h2.98v13.41zm7.29 0-4.18-5.78 2.74-.74 4.98 6.52zm-20.611-4.88v-2.32h2.89c.37 0 .7-.08 1.01-.23.31-.15.54-.37.72-.67.18-.29.27-.65.27-1.06 0-.41-.09-.75-.27-1.05a1.76 1.76 0 0 0-.72-.66c-.3-.15-.64-.23-1.01-.23h-2.89V9.83h3.32c.85 0 1.62.17 2.3.51a3.9 3.9 0 0 1 1.61 1.48c.4.63.61 1.39.61 2.26 0 .87-.2 1.63-.61 2.28-.39.63-.93 1.13-1.61 1.48-.68.34-1.45.51-2.3.51h-3.32zm-2.28 4.88V9.84h2.98v13.41Zm-13.658-5.53v-2.2h2.83c.6 0 1.05-.15 1.37-.46.33-.3.49-.72.49-1.24 0-.48-.16-.88-.48-1.2-.32-.32-.77-.47-1.37-.47h-2.85V9.83h3.19c.89 0 1.67.17 2.34.51.67.33 1.2.79 1.58 1.39.38.6.57 1.28.57 2.05 0 .77-.19 1.48-.57 2.07-.38.58-.91 1.04-1.6 1.37-.68.33-1.49.49-2.41.49h-3.1zm-2.28 5.53V9.84h2.98v13.41zm7.3 0-4.18-5.78 2.74-.74 4.98 6.52zm-22.791 0V9.84h2.98v13.41zm2.28 0v-2.58h7.35v2.58zm0-5.6v-2.49h6.69v2.49zm0-5.25V9.84h7.26v2.56ZM52.9 23.25V10.03h2.98v13.22Zm-4.2-10.81v-2.6h11.38v2.6z" fill="#fff"/>
  <path d="M16.29 23.25V9.84h2.98v13.41zm2.28 0v-2.58h7.35v2.58zm0-5.6v-2.49h6.69v2.49zm0-5.25V9.84h7.26v2.56z" fill="#181920"/>
</svg>
