<svg xmlns="http://www.w3.org/2000/svg" viewBox="0 12.899999618530273 130.0500030517578 39.599998474121094" data-asc="1.036" width="130.0500030517578" height="39.599998474121094"><defs/><g fill="#ffffff"><g transform="translate(0, 0)"><path d="M0 51.80L0 43.60L2.50 43.60L2.50 21.10L0 21.10L0 12.90L33.75 12.90L33.75 28.00L22.55 28.00L22.55 21.10L16.50 21.10L16.50 29.00L20.90 29.00L20.90 34.70L16.50 34.70L16.50 43.60L22.55 43.60L22.55 35.70L33.75 35.70L33.75 51.80L0 51.80ZM90.80 21.10L88.30 21.10L88.30 43.60L90.80 43.60L90.80 51.80L71.90 51.80L71.90 43.60L74.30 43.60L74.30 26.10L65.80 51.80L58.40 51.80L49.65 26.35L49.65 43.60L52.05 43.60L52.05 51.80L35.65 51.80L35.65 43.60L38.15 43.60L38.15 21.10L35.65 21.10L35.65 12.90L58.55 12.90L63.75 28.50L68.75 12.90L90.80 12.90L90.80 21.10ZM111.50 52.50Q103.65 52.50 99.38 49.05Q95.10 45.60 95.10 37.85L95.10 21.10L92.60 21.10L92.60 12.90L111.10 12.90L111.10 21.10L109.10 21.10L109.10 40.40Q109.10 42.05 109.83 42.83Q110.55 43.60 112.00 43.60Q113.45 43.60 114.18 42.83Q114.90 42.05 114.90 40.40L114.90 21.10L112.90 21.10L112.90 12.90L130.05 12.90L130.05 21.10L127.55 21.10L127.55 37.85Q127.55 45.60 123.40 49.05Q119.25 52.50 111.50 52.50Z"/></g></g></svg>